<mxfile host="65bd71144e">
    <diagram id="76nvMplQbqaWsRbm_vTD" name="Page-1">
        <mxGraphModel dx="734" dy="607" grid="1" gridSize="10" guides="1" tooltips="1" connect="1" arrows="1" fold="1" page="1" pageScale="1" pageWidth="827" pageHeight="1169" math="0" shadow="0">
            <root>
                <mxCell id="0"/>
                <mxCell id="1" parent="0"/>
                <mxCell id="7" style="edgeStyle=none;html=1;exitX=0.5;exitY=0;exitDx=0;exitDy=0;entryX=0;entryY=0.5;entryDx=0;entryDy=0;" edge="1" parent="1" source="2" target="3">
                    <mxGeometry relative="1" as="geometry">
                        <Array as="points">
                            <mxPoint x="320" y="310"/>
                        </Array>
                    </mxGeometry>
                </mxCell>
                <mxCell id="2" value="Blood&lt;br&gt;Count" style="whiteSpace=wrap;html=1;aspect=fixed;" vertex="1" parent="1">
                    <mxGeometry x="268" y="365" width="80" height="80" as="geometry"/>
                </mxCell>
                <mxCell id="10" style="edgeStyle=none;html=1;exitX=0.5;exitY=1;exitDx=0;exitDy=0;entryX=1;entryY=0.5;entryDx=0;entryDy=0;" edge="1" parent="1" source="3" target="2">
                    <mxGeometry relative="1" as="geometry">
                        <Array as="points">
                            <mxPoint x="410" y="400"/>
                        </Array>
                    </mxGeometry>
                </mxCell>
                <mxCell id="3" value="FBC /&lt;br&gt;CBC" style="whiteSpace=wrap;html=1;aspect=fixed;" vertex="1" parent="1">
                    <mxGeometry x="389" y="277" width="80" height="80" as="geometry"/>
                </mxCell>
                <mxCell id="4" value="CRP" style="whiteSpace=wrap;html=1;aspect=fixed;" vertex="1" parent="1">
                    <mxGeometry x="343" y="134" width="80" height="80" as="geometry"/>
                </mxCell>
                <mxCell id="5" value="PCT" style="whiteSpace=wrap;html=1;aspect=fixed;" vertex="1" parent="1">
                    <mxGeometry x="193" y="134" width="80" height="80" as="geometry"/>
                </mxCell>
                <mxCell id="6" value="IL-6" style="whiteSpace=wrap;html=1;aspect=fixed;" vertex="1" parent="1">
                    <mxGeometry x="147" y="277" width="80" height="80" as="geometry"/>
                </mxCell>
                <mxCell id="11" value="Reusing samples from a previous test" style="text;html=1;strokeColor=none;fillColor=none;align=center;verticalAlign=middle;whiteSpace=wrap;rounded=0;fontSize=15;fontStyle=4" vertex="1" parent="1">
                    <mxGeometry x="169.5" y="70" width="277" height="30" as="geometry"/>
                </mxCell>
                <mxCell id="12" value="Is it only possible to use a previous sample for a blod count and full blood count?" style="text;html=1;strokeColor=none;fillColor=none;align=center;verticalAlign=middle;whiteSpace=wrap;rounded=0;fontSize=15;" vertex="1" parent="1">
                    <mxGeometry x="460" y="380" width="140" height="110" as="geometry"/>
                </mxCell>
            </root>
        </mxGraphModel>
    </diagram>
</mxfile>